<?xml version="1.0" encoding="utf-8"?>
<!-- Generator: Adobe Illustrator 16.0.0, SVG Export Plug-In . SVG Version: 6.00 Build 0)  -->
<!DOCTYPE svg PUBLIC "-//W3C//DTD SVG 1.1//EN" "http://www.w3.org/Graphics/SVG/1.1/DTD/svg11.dtd">
<svg version="1.1" id="Layer_1" xmlns="http://www.w3.org/2000/svg" xmlns:xlink="http://www.w3.org/1999/xlink" x="0px" y="0px"
	 width="238px" height="66px" viewBox="0 0 238 66" enable-background="new 0 0 238 66" xml:space="preserve">
<g>
	<path fill="#FFFFFF" d="M43.833,23.93c0-0.231-0.031-0.47-0.095-0.718c-0.062-0.247-0.15-0.486-0.261-0.717
		c-0.11-0.231-0.234-0.442-0.37-0.633c-0.137-0.19-0.279-0.341-0.427-0.457c-0.42,0.126-0.862,0.245-1.325,0.354
		c-0.463,0.111-0.968,0.208-1.516,0.293c-0.547,0.083-1.145,0.151-1.792,0.206c-0.646,0.052-1.364,0.088-2.153,0.108
		c-0.433,0-0.875-0.037-1.327-0.108c-0.451-0.074-0.942-0.143-1.467-0.206c0.179-1.021,0.351-1.952,0.513-2.794
		c0.164-0.843,0.329-1.639,0.499-2.392c0.167-0.751,0.35-1.479,0.543-2.178c0.195-0.7,0.413-1.413,0.656-2.139
		c0.725,0.211,1.473,0.389,2.24,0.537c0.769,0.147,1.521,0.268,2.258,0.362c0.736,0.096,1.443,0.163,2.122,0.205
		c0.679,0.044,1.292,0.064,1.839,0.064c1.219,0,2.362-0.163,3.424-0.489c1.063-0.326,1.995-0.787,2.793-1.38
		c0.8-0.595,1.428-1.308,1.886-2.139c0.458-0.833,0.688-1.759,0.688-2.778c0-0.2-0.019-0.419-0.055-0.656
		c-0.036-0.237-0.09-0.47-0.159-0.702C52.282,5.34,52.2,5.127,52.104,4.932c-0.093-0.193-0.199-0.35-0.314-0.465
		c-1.042-0.01-2.067-0.034-3.08-0.07C47.7,4.36,46.629,4.294,45.5,4.198c-1.132-0.094-2.361-0.22-3.687-0.377
		c-1.327-0.158-2.834-0.364-4.522-0.615c-1.69-0.254-3.596-0.556-5.722-0.908c-2.126-0.353-4.545-0.772-7.261-1.255
		c-1.243-0.231-2.323-0.416-3.244-0.553c-0.921-0.136-1.766-0.242-2.535-0.317c-0.766-0.072-1.5-0.121-2.2-0.141
		C15.628,0.01,14.884,0,14.095,0c-1.537,0-2.951,0.177-4.246,0.53C8.556,0.882,7.385,1.377,6.338,2.013
		C5.291,2.649,4.373,3.401,3.583,4.27c-0.789,0.869-1.45,1.82-1.981,2.856c-0.531,1.037-0.931,2.135-1.2,3.292
		C0.133,11.576,0,12.76,0,13.969c0,0.97,0.108,1.905,0.324,2.81c0.216,0.905,0.51,1.749,0.883,2.533
		c0.375,0.785,0.816,1.5,1.327,2.147c0.51,0.647,1.063,1.202,1.656,1.665c0.595,0.463,1.22,0.82,1.87,1.073
		c0.654,0.252,1.305,0.378,1.958,0.378c0.874,0,1.636-0.121,2.289-0.363c0.652-0.241,1.197-0.561,1.634-0.962
		c0.437-0.399,0.764-0.868,0.985-1.405c0.221-0.537,0.332-1.093,0.332-1.672c-1.116-0.653-2.053-1.301-2.809-1.942
		c-0.759-0.643-1.372-1.287-1.84-1.935c-0.468-0.646-0.802-1.294-1.003-1.94c-0.199-0.648-0.298-1.293-0.298-1.934
		c0-1.526,0.414-2.694,1.247-3.504c0.831-0.81,2.121-1.215,3.867-1.215c0.873,0,1.823,0.047,2.848,0.143
		c1.026,0.093,2.155,0.254,3.387,0.48c1.229,0.227,2.569,0.526,4.016,0.899c1.448,0.375,3.028,0.836,4.744,1.382
		c-0.537,0.936-1.013,1.815-1.428,2.636c-0.417,0.821-0.792,1.631-1.129,2.431c-0.337,0.8-0.641,1.605-0.909,2.416
		c-0.268,0.81-0.512,1.677-0.733,2.603c-0.463,0.032-0.884,0.085-1.263,0.157c-0.379,0.075-0.716,0.196-1.011,0.365
		c-0.61,0.325-1.052,0.742-1.324,1.246c-0.275,0.506-0.411,1.037-0.411,1.594c0,0.653,0.153,1.294,0.457,1.927
		c0.306,0.63,0.733,1.173,1.278,1.626c-2.547,1.703-4.769,3.28-6.667,4.726c-1.899,1.448-3.532,2.797-4.894,4.049
		c-1.363,1.253-2.484,2.416-3.362,3.488c-0.879,1.073-1.571,2.086-2.076,3.038c-0.505,0.952-0.857,1.855-1.057,2.709
		c-0.201,0.852-0.301,1.683-0.301,2.493c0,1.41,0.213,2.683,0.64,3.82c0.425,1.137,1.056,2.104,1.886,2.904
		c0.83,0.799,1.862,1.417,3.094,1.854c1.23,0.438,2.655,0.654,4.276,0.654c1.538,0,2.974-0.225,4.311-0.677
		c1.335-0.453,2.583-1.095,3.74-1.927c1.158-0.831,2.22-1.841,3.188-3.03c0.968-1.189,1.848-2.521,2.637-3.993
		c0.79-1.473,1.487-3.076,2.092-4.808c0.605-1.73,1.122-3.553,1.555-5.468c0.03-0.147,0.095-0.417,0.19-0.813
		c0.094-0.395,0.202-0.849,0.323-1.366c0.121-0.514,0.25-1.059,0.387-1.633c0.136-0.574,0.268-1.122,0.394-1.648
		c0.125-0.526,0.237-0.997,0.332-1.413c0.095-0.417,0.159-0.712,0.189-0.892c0.516,0.105,1.031,0.2,1.546,0.285
		c0.443,0.072,0.916,0.142,1.421,0.206c0.505,0.062,0.979,0.093,1.422,0.093c1.104,0,2.124-0.128,3.054-0.387
		c0.931-0.256,1.735-0.65,2.415-1.175c0.677-0.527,1.207-1.187,1.586-1.981C43.646,25.921,43.833,24.992,43.833,23.93z
		 M18.515,41.688c-0.556,2.051-1.13,3.754-1.719,5.106c-0.591,1.352-1.187,2.361-1.793,3.03c-0.604,0.667-1.207,1.001-1.806,1.001
		c-0.36,0-0.685-0.065-0.98-0.196c-0.294-0.131-0.548-0.34-0.757-0.625c-0.211-0.283-0.375-0.657-0.49-1.12
		c-0.116-0.463-0.172-1.026-0.172-1.69c0-0.599,0.135-1.276,0.409-2.027c0.274-0.753,0.761-1.634,1.461-2.645
		s1.649-2.173,2.85-3.488c1.199-1.314,2.729-2.843,4.592-4.577C19.604,37.225,19.072,39.635,18.515,41.688z"/>
	<path fill="#FFFFFF" d="M113.001,17.362c-1.042-0.798-2.499-1.199-4.372-1.199c-1.475,0-2.84,0.224-4.096,0.672
		c-1.259,0.447-2.345,1.075-3.261,1.885c-0.914,0.81-1.633,1.778-2.153,2.904c-0.522,1.127-0.782,2.368-0.782,3.726
		c0,0.674,0.092,1.436,0.277,2.29c0.183,0.852,0.414,1.747,0.695,2.683c0.278,0.936,0.581,1.888,0.906,2.857
		c0.326,0.968,0.629,1.899,0.908,2.794c0.279,0.893,0.511,1.729,0.693,2.508c0.185,0.781,0.278,1.444,0.278,1.99
		c0,0.274-0.04,0.505-0.119,0.694c-0.079,0.19-0.184,0.345-0.316,0.465c-0.131,0.122-0.279,0.208-0.442,0.26
		c-0.162,0.055-0.323,0.079-0.48,0.079c-0.369,0-0.772-0.115-1.21-0.346c-0.436-0.231-0.854-0.558-1.253-0.978
		c-0.401-0.422-0.759-0.927-1.075-1.516c-0.314-0.589-0.536-1.242-0.662-1.957c0.273-0.306,0.513-0.598,0.719-0.877
		c0.205-0.278,0.377-0.559,0.52-0.845c0.143-0.283,0.251-0.576,0.324-0.875c0.074-0.3,0.11-0.619,0.11-0.956
		c0-0.399-0.105-0.862-0.315-1.39c-0.209-0.524-0.5-1.019-0.867-1.482c-0.369-0.463-0.8-0.856-1.295-1.177
		c-0.494-0.32-1.026-0.481-1.595-0.481c-0.525,0-0.998,0.161-1.412,0.481c-0.417,0.321-0.779,0.751-1.089,1.288
		c-0.311,0.535-0.574,1.15-0.79,1.845c-0.216,0.695-0.393,1.417-0.529,2.164c-0.029,0.161-0.05,0.323-0.075,0.485
		c-0.989,0.946-2.001,1.78-3.043,2.484c-1.215,0.82-2.436,1.453-3.661,1.901c-1.227,0.447-2.388,0.67-3.48,0.67
		c-0.633,0-1.15-0.099-1.555-0.301c-0.406-0.2-0.723-0.488-0.949-0.867c-0.227-0.38-0.384-0.851-0.473-1.412
		c-0.089-0.564-0.135-1.209-0.135-1.934c2.211-0.505,4.081-1.14,5.611-1.902c1.533-0.763,2.773-1.643,3.725-2.636
		c0.953-0.995,1.64-2.088,2.061-3.283c0.421-1.195,0.632-2.471,0.632-3.828c0-2.264-0.594-3.939-1.784-5.028
		c-1.189-1.089-2.9-1.633-5.13-1.633c-1.053,0-2.133,0.261-3.244,0.781c-1.11,0.522-2.192,1.242-3.244,2.163
		c-1.052,0.921-2.049,2.007-2.99,3.259c-0.944,1.251-1.767,2.608-2.471,4.072c-0.705,1.462-1.264,2.998-1.672,4.601
		c-0.191,0.746-0.333,1.494-0.435,2.246c-0.413,0.512-0.826,1.009-1.238,1.472c-0.622,0.694-1.234,1.323-1.84,1.888
		c-0.604,0.561-1.173,1.042-1.706,1.436c-0.532,0.394-1.015,0.7-1.45,0.915c-0.438,0.216-0.808,0.324-1.114,0.324
		c-0.431,0-0.723-0.146-0.876-0.434c-0.152-0.291-0.229-0.667-0.229-1.13c0-0.399,0.077-0.89,0.229-1.468
		c0.154-0.577,0.354-1.21,0.609-1.894c0.253-0.684,0.546-1.402,0.883-2.153c0.337-0.753,0.689-1.498,1.057-2.235
		c0.527-1.042,0.951-1.956,1.271-2.746c0.321-0.789,0.481-1.51,0.481-2.163c0-0.388-0.059-0.742-0.18-1.058
		c-0.121-0.315-0.35-0.612-0.688-0.892c-0.337-0.278-0.805-0.549-1.404-0.813c-0.6-0.263-1.374-0.529-2.32-0.805
		c-0.559-0.158-1.116-0.34-1.673-0.552c-0.559-0.21-1.016-0.411-1.374-0.599c0.431-0.728,0.97-1.343,1.618-1.848
		c0.647-0.505,1.359-0.968,2.139-1.389c0.126-0.4,0.19-0.831,0.19-1.294c0-0.443-0.089-0.835-0.27-1.177
		c-0.178-0.34-0.428-0.63-0.749-0.868c-0.323-0.237-0.708-0.418-1.16-0.544c-0.453-0.126-0.953-0.189-1.5-0.189
		c-0.61,0-1.289,0.165-2.035,0.497c-0.749,0.332-1.507,0.777-2.281,1.333c-0.774,0.559-1.526,1.204-2.259,1.934
		c-0.732,0.731-1.379,1.503-1.948,2.313c-0.568,0.81-1.025,1.631-1.373,2.462c-0.347,0.831-0.522,1.625-0.522,2.384
		c0,0.621,0.098,1.145,0.293,1.57c0.195,0.426,0.424,0.787,0.686,1.082c-0.275,0.663-0.558,1.269-0.854,1.823
		c-0.293,0.553-0.606,1.088-0.938,1.602c-0.33,0.516-0.677,1.035-1.042,1.555c-0.362,0.522-0.754,1.082-1.175,1.681
		c-0.167,0.221-0.286,0.469-0.356,0.742c-0.067,0.275-0.103,0.542-0.103,0.804c0,0.337,0.059,0.658,0.175,0.963
		c0.116,0.306,0.283,0.574,0.504,0.805c0.22,0.232,0.491,0.417,0.813,0.553c0.321,0.137,0.686,0.206,1.097,0.206
		c0.536-0.6,1.037-1.199,1.5-1.8c0.463-0.599,0.913-1.236,1.356-1.909c0.442-0.675,0.888-1.397,1.334-2.171
		c0.448-0.773,0.923-1.64,1.428-2.596c0.714,0.293,1.25,0.563,1.602,0.806c0.353,0.242,0.528,0.557,0.528,0.946
		c0,0.273-0.078,0.65-0.236,1.129c-0.158,0.48-0.353,1.024-0.584,1.634c-0.231,0.61-0.485,1.273-0.758,1.989
		c-0.274,0.715-0.526,1.448-0.758,2.202c-0.232,0.751-0.425,1.509-0.583,2.272c-0.157,0.764-0.238,1.502-0.238,2.217
		c0,1.842,0.532,3.208,1.595,4.097c1.062,0.889,2.577,1.334,4.545,1.334c0.747,0,1.559-0.168,2.439-0.504
		c0.879-0.338,1.786-0.791,2.722-1.358c0.937-0.568,1.882-1.23,2.834-1.989c0.953-0.756,1.866-1.559,2.738-2.407
		c0.471-0.457,0.924-0.921,1.363-1.389c0.05,0.223,0.096,0.45,0.152,0.663c0.37,1.353,0.933,2.496,1.697,3.427
		c0.764,0.931,1.727,1.639,2.89,2.123c1.163,0.482,2.533,0.725,4.111,0.725c1.052,0,2.134-0.149,3.243-0.449
		c1.111-0.299,2.213-0.711,3.308-1.231c1.094-0.522,2.167-1.128,3.22-1.823c1.051-0.695,2.047-1.438,2.983-2.234
		c0.148-0.125,0.282-0.256,0.429-0.385c0.103,0.452,0.222,0.89,0.376,1.301c0.463,1.225,1.099,2.254,1.909,3.084
		c0.811,0.832,1.759,1.458,2.85,1.879c1.089,0.422,2.265,0.632,3.528,0.632c0.969,0,1.949-0.087,2.944-0.26
		c0.993-0.174,1.954-0.444,2.88-0.812c0.926-0.37,1.794-0.843,2.605-1.422c0.81-0.578,1.515-1.271,2.114-2.077
		c0.6-0.805,1.074-1.726,1.42-2.768c0.348-1.042,0.521-2.215,0.521-3.521c0-0.788-0.092-1.588-0.276-2.398
		c-0.184-0.811-0.413-1.616-0.687-2.416c-0.273-0.8-0.569-1.586-0.884-2.359c-0.316-0.774-0.609-1.51-0.884-2.21
		c-0.274-0.7-0.502-1.355-0.687-1.966c-0.184-0.611-0.276-1.158-0.276-1.641c0-0.591,0.172-0.998,0.52-1.225
		c0.347-0.226,0.863-0.339,1.548-0.339c1.042,0,2.182,0.258,3.423,0.774c0.391-0.39,0.714-0.897,0.972-1.523
		c0.258-0.626,0.388-1.281,0.388-1.965C114.565,19.336,114.043,18.163,113.001,17.362z M77.888,28.144
		c0.248-0.841,0.524-1.541,0.829-2.1c0.306-0.558,0.614-0.976,0.924-1.254c0.311-0.278,0.577-0.418,0.797-0.418
		c0.39,0,0.703,0.187,0.939,0.561c0.237,0.374,0.355,0.902,0.355,1.585c0,0.484-0.058,0.962-0.174,1.438
		c-0.116,0.473-0.336,0.913-0.664,1.325c-0.325,0.409-0.774,0.776-1.34,1.096c-0.569,0.321-1.306,0.561-2.21,0.72
		C77.46,29.97,77.641,28.985,77.888,28.144z"/>
	<path fill="#FFFFFF" d="M156.742,11.603c0.358,0.578,0.814,1.031,1.374,1.357c0.556,0.325,1.214,0.488,1.973,0.488
		c0.777-0.946,1.402-1.815,1.87-2.604s0.834-1.505,1.096-2.146c0.263-0.643,0.438-1.217,0.522-1.721
		c0.083-0.505,0.126-0.951,0.126-1.343c0-0.505-0.161-1.04-0.481-1.609c-0.321-0.568-0.743-1.092-1.263-1.571
		c-0.521-0.479-1.103-0.877-1.744-1.199c-0.643-0.321-1.289-0.481-1.942-0.481c-0.443,0-0.823,0.086-1.145,0.26
		c-0.321,0.173-0.589,0.491-0.805,0.954c-0.215,0.463-0.375,1.099-0.481,1.902c-0.106,0.805-0.157,1.839-0.157,3.103
		c0,0.915,0.086,1.768,0.26,2.557C156.117,10.339,156.383,11.024,156.742,11.603z"/>
	<path fill="#FFFFFF" d="M214.023,25.476c0-2.452-0.437-4.238-1.311-5.359c-0.873-1.122-2.183-1.68-3.929-1.68
		c-0.854,0-1.669,0.181-2.446,0.543c-0.779,0.363-1.461,0.848-2.044,1.453c-0.584,0.605-1.05,1.3-1.397,2.084
		c-0.347,0.785-0.522,1.597-0.522,2.438c0,0.263,0.018,0.516,0.049,0.757c0.03,0.242,0.084,0.511,0.157,0.805
		c0.579,0.179,1.06,0.375,1.445,0.592c0.384,0.215,0.689,0.479,0.915,0.789c0.225,0.311,0.384,0.682,0.474,1.114
		c0.088,0.431,0.134,0.958,0.134,1.578c0,0.705-0.092,1.45-0.277,2.233c-0.184,0.785-0.428,1.559-0.734,2.32
		c-0.306,0.764-0.661,1.49-1.064,2.178c-0.406,0.689-0.83,1.297-1.271,1.825c-0.443,0.525-0.887,0.943-1.335,1.254
		c-0.446,0.31-0.87,0.465-1.269,0.465c-0.19,0-0.357-0.077-0.499-0.229c-0.142-0.153-0.255-0.46-0.339-0.924
		c-0.083-0.462-0.147-1.124-0.189-1.981c-0.043-0.857-0.064-1.99-0.064-3.402c0-0.579,0.027-1.293,0.081-2.146
		c0.051-0.853,0.125-1.776,0.22-2.771c0.096-0.993,0.211-2.025,0.347-3.094c0.137-1.067,0.285-2.102,0.443-3.101
		c1.315-1.842,2.48-3.517,3.496-5.026c1.015-1.51,1.902-2.881,2.659-4.114c0.757-1.229,1.395-2.328,1.91-3.289
		c0.515-0.963,0.933-1.826,1.255-2.582c0.32-0.758,0.548-1.421,0.687-1.988c0.137-0.569,0.205-1.069,0.205-1.5
		c0-0.778-0.096-1.445-0.291-1.999c-0.195-0.551-0.474-1.004-0.837-1.355c-0.362-0.353-0.802-0.615-1.318-0.782
		c-0.515-0.168-1.099-0.252-1.751-0.252c-1.032,0-2.059,0.301-3.086,0.907c-1.026,0.605-2.023,1.446-2.991,2.524
		c-0.968,1.08-1.899,2.363-2.793,3.853c-0.896,1.487-1.73,3.121-2.504,4.9c-0.772,1.779-1.478,3.662-2.114,5.651
		c-0.637,1.988-1.182,4.025-1.634,6.109c-0.453,2.084-0.803,4.178-1.05,6.282c-0.122,1.035-0.211,2.057-0.273,3.068
		c-0.412,0.477-0.815,0.896-1.21,1.219c-0.963,0.784-1.912,1.175-2.848,1.175c-0.327,0-0.599-0.052-0.813-0.157
		c-0.217-0.105-0.377-0.205-0.482-0.301c0.242-0.588,0.479-1.217,0.71-1.886c0.231-0.668,0.453-1.354,0.664-2.053
		c0.209-0.7,0.404-1.404,0.584-2.114c0.177-0.71,0.334-1.402,0.473-2.077c0.136-0.673,0.242-1.317,0.315-1.934
		c0.074-0.615,0.111-1.18,0.111-1.696c0-0.632-0.082-1.213-0.245-1.744c-0.163-0.532-0.407-0.989-0.733-1.374
		c-0.327-0.384-0.736-0.684-1.231-0.899c-0.495-0.216-1.074-0.325-1.737-0.325c-0.621,0-1.202,0.165-1.744,0.49
		c-0.542,0.326-1.04,0.768-1.493,1.326c-0.01-0.537-0.136-0.986-0.378-1.351c-0.243-0.362-0.546-0.653-0.916-0.875
		c-0.368-0.221-0.775-0.379-1.222-0.473c-0.448-0.096-0.883-0.142-1.302-0.142c-1.136,0-2.272,0.252-3.403,0.757
		c-1.13,0.506-2.208,1.213-3.227,2.122c-1.022,0.912-1.971,1.994-2.851,3.245c-0.878,1.252-1.638,2.631-2.281,4.136
		c-0.64,1.505-1.145,3.107-1.515,4.806c-0.028,0.126-0.046,0.254-0.071,0.383c-0.121,0.143-0.242,0.298-0.362,0.438
		c-0.774,0.89-1.545,1.7-2.312,2.431c-0.77,0.732-1.531,1.391-2.29,1.981c-0.756,0.589-1.511,1.126-2.257,1.61
		c0.126-0.883,0.266-1.78,0.418-2.691c0.154-0.91,0.304-1.785,0.45-2.628c0.147-0.842,0.292-1.625,0.435-2.352
		c0.141-0.725,0.271-1.358,0.386-1.893c1.199-2.052,2.07-3.837,2.613-5.359c0.542-1.521,0.813-2.75,0.813-3.686
		c0-0.525-0.051-0.978-0.151-1.358c-0.1-0.379-0.271-0.695-0.512-0.947c-0.242-0.252-0.567-0.44-0.971-0.561
		c-0.406-0.121-0.918-0.181-1.54-0.181c-0.672,0-1.398,0.184-2.177,0.554c-0.779,0.367-1.559,0.857-2.337,1.467
		c-0.779,0.609-1.531,1.304-2.257,2.083c-0.726,0.78-1.368,1.577-1.925,2.392c-0.558,0.815-1.004,1.621-1.342,2.414
		c-0.337,0.795-0.504,1.507-0.504,2.14c0,0.653,0.044,1.33,0.134,2.035c0.007,0.061,0.023,0.114,0.032,0.173
		c-0.906,1.263-1.79,2.398-2.652,3.387c-0.994,1.143-1.91,2.099-2.746,2.874c-0.837,0.772-1.566,1.354-2.187,1.744
		c-0.622,0.389-1.08,0.584-1.374,0.584c-0.284,0-0.504-0.071-0.663-0.213c-0.157-0.142-0.236-0.392-0.236-0.749
		c0-0.275,0.055-0.635,0.166-1.082c0.11-0.448,0.255-0.952,0.433-1.515c0.18-0.563,0.382-1.161,0.608-1.792
		c0.227-0.632,0.461-1.26,0.703-1.885c0.241-0.628,0.478-1.234,0.709-1.823c0.231-0.59,0.437-1.122,0.615-1.596
		c0.484-1.229,0.862-2.367,1.138-3.409c0.272-1.042,0.409-2.062,0.409-3.063c0-0.566-0.079-1.086-0.237-1.555
		c-0.157-0.467-0.394-0.869-0.71-1.206c-0.316-0.337-0.708-0.597-1.177-0.781c-0.468-0.186-1.008-0.276-1.617-0.276
		c-1.273,0-2.871,0.52-4.791,1.562c-1.921,1.042-4.055,2.636-6.4,4.782l1.546-6.075c1.263-2.083,2.31-3.902,3.142-5.454
		c0.831-1.552,1.493-2.912,1.988-4.081c0.496-1.168,0.843-2.184,1.042-3.046c0.2-0.863,0.3-1.647,0.3-2.353
		c0-0.82-0.09-1.523-0.268-2.107c-0.18-0.584-0.442-1.06-0.791-1.428c-0.347-0.368-0.784-0.638-1.31-0.805
		c-0.526-0.168-1.137-0.252-1.831-0.252c-1.378,0-2.61,0.288-3.694,0.867c-1.083,0.58-2.055,1.467-2.912,2.66
		c-0.857,1.193-1.619,2.704-2.281,4.53c-0.662,1.826-1.264,3.992-1.8,6.495c-0.537,2.506-1.026,5.357-1.469,8.556
		c-0.442,3.199-0.872,6.767-1.293,10.702c-0.811,1.389-1.368,2.67-1.672,3.844c-0.306,1.173-0.458,2.259-0.458,3.259
		c0.01,0.558,0.095,1.116,0.253,1.673c0.157,0.557,0.375,1.087,0.653,1.586c0.28,0.5,0.615,0.966,1.003,1.397
		c0.389,0.432,0.827,0.809,1.31,1.129c0.486,0.32,1.011,0.571,1.579,0.749c0.569,0.179,1.163,0.268,1.783,0.268
		c0.653,0,1.24-0.069,1.76-0.212c0.522-0.143,0.928-0.377,1.224-0.702c0.021-1.505,0.061-2.942,0.118-4.312
		c0.058-1.366,0.14-2.685,0.244-3.954c0.106-1.266,0.227-2.495,0.363-3.685c0.136-1.188,0.285-2.358,0.442-3.504
		c0.875-0.748,1.685-1.301,2.431-1.659c0.747-0.356,1.4-0.536,1.958-0.536c0.358,0,0.598,0.109,0.718,0.325
		c0.121,0.214,0.182,0.453,0.182,0.717c0,0.231-0.084,0.621-0.254,1.168c-0.167,0.547-0.376,1.187-0.623,1.917
		c-0.247,0.733-0.515,1.533-0.805,2.408c-0.289,0.873-0.558,1.754-0.806,2.644c-0.246,0.889-0.455,1.764-0.623,2.621
		c-0.169,0.858-0.252,1.644-0.252,2.361c0,0.883,0.086,1.654,0.261,2.311c0.173,0.658,0.459,1.207,0.859,1.643
		c0.4,0.436,0.926,0.759,1.58,0.971c0.65,0.21,1.456,0.315,2.415,0.315c0.746,0,1.559-0.167,2.439-0.498
		c0.877-0.33,1.783-0.778,2.714-1.34c0.931-0.563,1.87-1.217,2.817-1.958c0.947-0.742,1.857-1.531,2.731-2.367
		c0.873-0.838,1.688-1.692,2.447-2.564c0.146-0.17,0.271-0.332,0.41-0.498c-0.123,0.968-0.236,1.934-0.34,2.896
		c-0.111,1.031-0.207,1.999-0.291,2.905l-5.178,3.299c-1.326,0.841-2.397,1.588-3.212,2.242c-0.815,0.65-1.45,1.278-1.902,1.877
		c-0.453,0.6-0.758,1.202-0.917,1.808c-0.157,0.604-0.236,1.276-0.236,2.012c0,1.284,0.188,2.454,0.561,3.511
		c0.372,1.058,0.902,1.97,1.586,2.739c0.684,0.768,1.508,1.362,2.469,1.783c0.963,0.421,2.035,0.631,3.213,0.631
		c1.273,0,2.542-0.254,3.803-0.764c1.263-0.512,2.425-1.29,3.49-2.336c1.062-1.047,1.979-2.371,2.745-3.97
		c0.769-1.599,1.3-3.488,1.596-5.667c0.052-0.306,0.104-0.659,0.157-1.058c0.053-0.4,0.11-0.833,0.173-1.301
		c0.063-0.469,0.126-0.958,0.189-1.468c0.064-0.51,0.125-1.024,0.189-1.539c0.947-0.611,1.915-1.294,2.905-2.053
		c0.988-0.759,1.944-1.547,2.865-2.367c0.669-0.6,1.304-1.205,1.918-1.813c0.106,0.661,0.259,1.276,0.464,1.845
		c0.427,1.178,1.008,2.153,1.744,2.927c0.737,0.774,1.606,1.353,2.606,1.737c0.998,0.384,2.072,0.576,3.219,0.576
		c1.136,0,2.204-0.144,3.206-0.434c0.998-0.289,1.951-0.711,2.855-1.263c0.906-0.551,1.772-1.233,2.598-2.044
		c0.826-0.809,1.623-1.741,2.391-2.793c0.357,0.232,0.732,0.397,1.121,0.497c0.389,0.101,0.879,0.15,1.469,0.15
		c0.916,0,1.793-0.155,2.635-0.466c0.843-0.309,1.626-0.715,2.353-1.214c0.203-0.14,0.391-0.299,0.585-0.45
		c0.081,0.689,0.183,1.345,0.32,1.94c0.342,1.483,0.851,2.702,1.523,3.654c0.673,0.953,1.51,1.657,2.51,2.115
		c1.001,0.458,2.153,0.687,3.458,0.687c1.063,0,2.118-0.194,3.165-0.584c1.047-0.388,2.068-0.928,3.062-1.618
		c0.996-0.689,1.949-1.507,2.866-2.455c0.916-0.947,1.77-1.983,2.564-3.11c0.796-1.125,1.519-2.32,2.171-3.582
		c0.652-1.263,1.21-2.551,1.673-3.868c0.462-1.315,0.821-2.633,1.072-3.954C213.897,28,214.023,26.719,214.023,25.476z
		 M145.219,52.61c-0.043,0.41-0.084,0.884-0.126,1.421c-0.043,0.537-0.09,1.104-0.142,1.705c-0.063,0.914-0.195,1.576-0.394,1.981
		c-0.201,0.404-0.543,0.607-1.027,0.607c-0.326,0-0.625-0.074-0.899-0.221c-0.273-0.147-0.51-0.358-0.71-0.631
		c-0.199-0.274-0.358-0.601-0.474-0.98c-0.116-0.378-0.172-0.805-0.172-1.279c0-0.242,0.035-0.463,0.103-0.663
		c0.067-0.199,0.173-0.392,0.314-0.576c0.142-0.183,0.326-0.368,0.553-0.552c0.226-0.185,0.502-0.382,0.828-0.591l2.274-1.563
		C145.302,51.679,145.26,52.126,145.219,52.61z M177.293,25.35c-0.264,0.736-0.488,1.479-0.67,2.226
		c-0.186,0.747-0.325,1.481-0.419,2.201c-0.095,0.721-0.142,1.397-0.142,2.029c0,0.505,0.021,1.03,0.064,1.571
		c0.041,0.543,0.103,1.075,0.188,1.603c0.084,0.527,0.19,1.029,0.316,1.507c0.126,0.479,0.278,0.902,0.458,1.271
		c-0.222,0.357-0.469,0.697-0.744,1.018c-0.273,0.32-0.567,0.603-0.882,0.845c-0.317,0.242-0.651,0.434-1.003,0.576
		c-0.353,0.141-0.723,0.213-1.112,0.213c-0.296,0-0.582-0.063-0.861-0.19c-0.278-0.126-0.528-0.344-0.75-0.656
		c-0.221-0.309-0.398-0.727-0.529-1.253c-0.132-0.527-0.196-1.186-0.196-1.973c0-0.885,0.083-1.777,0.251-2.675
		c0.168-0.9,0.408-1.782,0.719-2.645c0.311-0.864,0.683-1.692,1.122-2.485c0.435-0.795,0.918-1.53,1.451-2.202
		c0.532-0.673,1.106-1.271,1.722-1.793c0.614-0.52,1.254-0.938,1.917-1.254C177.854,23.925,177.556,24.613,177.293,25.35z"/>
	<path fill="#FFFFFF" d="M236.438,17.362c-1.042-0.798-2.501-1.199-4.373-1.199c-1.474,0-2.839,0.224-4.097,0.672
		c-1.257,0.447-2.343,1.075-3.259,1.885s-1.633,1.778-2.156,2.904c-0.52,1.127-0.781,2.368-0.781,3.726
		c0,0.674,0.092,1.436,0.277,2.29c0.184,0.852,0.415,1.747,0.694,2.683c0.278,0.936,0.581,1.888,0.909,2.857
		c0.324,0.968,0.628,1.899,0.906,2.794c0.279,0.893,0.511,1.729,0.695,2.508c0.185,0.781,0.276,1.444,0.276,1.99
		c0,0.274-0.04,0.505-0.118,0.694c-0.079,0.19-0.185,0.345-0.316,0.465c-0.131,0.122-0.278,0.208-0.442,0.26
		c-0.164,0.055-0.324,0.079-0.481,0.079c-0.368,0-0.771-0.115-1.207-0.346c-0.437-0.231-0.855-0.558-1.255-0.978
		c-0.401-0.422-0.758-0.927-1.073-1.516c-0.316-0.589-0.538-1.242-0.664-1.957c0.273-0.306,0.513-0.598,0.718-0.877
		c0.207-0.278,0.379-0.559,0.522-0.845c0.142-0.283,0.249-0.576,0.323-0.875c0.074-0.3,0.11-0.619,0.11-0.956
		c0-0.399-0.105-0.862-0.314-1.39c-0.212-0.524-0.501-1.019-0.87-1.482c-0.368-0.463-0.799-0.856-1.294-1.177
		c-0.495-0.32-1.026-0.481-1.595-0.481c-0.526,0-0.996,0.161-1.413,0.481c-0.416,0.321-0.779,0.751-1.088,1.288
		c-0.311,0.535-0.574,1.15-0.789,1.845c-0.217,0.695-0.392,1.417-0.53,2.164c-0.137,0.747-0.234,1.495-0.291,2.241
		c-0.059,0.749-0.088,1.437-0.088,2.068c0,1.601,0.231,3.013,0.695,4.239c0.462,1.225,1.101,2.254,1.912,3.084
		c0.808,0.832,1.759,1.458,2.848,1.879c1.089,0.422,2.266,0.632,3.527,0.632c0.968,0,1.95-0.087,2.944-0.26
		c0.994-0.174,1.956-0.444,2.881-0.812c0.925-0.37,1.794-0.843,2.605-1.422c0.81-0.578,1.515-1.271,2.114-2.077
		c0.6-0.805,1.073-1.726,1.42-2.768c0.347-1.042,0.522-2.215,0.522-3.521c0-0.788-0.093-1.588-0.278-2.398
		c-0.183-0.811-0.412-1.616-0.685-2.416c-0.275-0.8-0.569-1.586-0.885-2.359c-0.316-0.774-0.61-1.51-0.885-2.21
		c-0.273-0.7-0.502-1.355-0.687-1.966c-0.182-0.611-0.276-1.158-0.276-1.641c0-0.591,0.175-0.998,0.522-1.225
		c0.347-0.226,0.862-0.339,1.547-0.339c1.041,0,2.183,0.258,3.424,0.774c0.391-0.39,0.712-0.897,0.972-1.523
		c0.258-0.626,0.386-1.281,0.386-1.965C238,19.336,237.479,18.163,236.438,17.362z"/>
</g>
<g>
</g>
<g>
</g>
<g>
</g>
<g>
</g>
<g>
</g>
<g>
</g>
<g>
</g>
<g>
</g>
<g>
</g>
<g>
</g>
<g>
</g>
<g>
</g>
<g>
</g>
<g>
</g>
<g>
</g>
</svg>
