<?xml version="1.0" encoding="utf-8"?>
<!-- Generator: Adobe Illustrator 16.0.0, SVG Export Plug-In . SVG Version: 6.00 Build 0)  -->
<!DOCTYPE svg PUBLIC "-//W3C//DTD SVG 1.1//EN" "http://www.w3.org/Graphics/SVG/1.1/DTD/svg11.dtd">
<svg version="1.1" id="Layer_1" xmlns="http://www.w3.org/2000/svg" xmlns:xlink="http://www.w3.org/1999/xlink" x="0px" y="0px"
	 width="200px" height="60px" viewBox="0 0 200 60" enable-background="new 0 0 200 60" xml:space="preserve">
<g>
	<path fill="#FFFFFF" d="M67.344,34.822V21.543c0-0.251,0.113-0.445,0.339-0.581s0.491-0.203,0.8-0.203
		c0.307,0,0.573,0.067,0.8,0.203c0.225,0.136,0.338,0.33,0.338,0.581v13.279c0,2.566,1.21,3.85,3.632,3.85
		c1.174,0,2.077-0.32,2.71-0.963c0.632-0.641,0.948-1.602,0.948-2.887V21.543c0-0.521,0.38-0.784,1.138-0.784
		c0.307,0,0.573,0.067,0.8,0.203c0.226,0.136,0.339,0.33,0.339,0.581v13.279c0,2.045-0.542,3.539-1.626,4.486
		s-2.521,1.424-4.309,1.424c-1.789,0-3.222-0.477-4.296-1.424S67.344,36.867,67.344,34.822z"/>
	<path fill="#FFFFFF" d="M81.571,39.512c0-0.164,0.054-0.324,0.162-0.488l4.662-8.373l-4.554-8.321
		c-0.126-0.197-0.189-0.397-0.189-0.595c0-0.308,0.141-0.556,0.42-0.746c0.28-0.19,0.601-0.284,0.962-0.284
		c0.379,0,0.714,0.288,1.003,0.866l3.821,7.208l3.848-7.208c0.29-0.579,0.623-0.866,1.002-0.866c0.363,0,0.683,0.094,0.963,0.284
		s0.42,0.438,0.42,0.746c0,0.198-0.063,0.397-0.189,0.595l-4.58,8.321l4.688,8.373c0.108,0.164,0.163,0.324,0.163,0.488
		c0,0.289-0.159,0.547-0.475,0.773c-0.316,0.227-0.637,0.338-0.962,0.338c-0.308,0-0.597-0.254-0.867-0.76l-4.011-7.398
		l-3.984,7.398c-0.271,0.506-0.56,0.76-0.867,0.76c-0.324,0-0.646-0.111-0.962-0.338C81.729,40.059,81.571,39.801,81.571,39.512z"/>
	<path fill="#FFFFFF" d="M96.639,39.756V21.543c0-0.215,0.076-0.396,0.229-0.541c0.154-0.144,0.349-0.226,0.583-0.243h4.96
		c1.807,0,3.262,0.419,4.361,1.26c1.104,0.839,1.655,2.226,1.655,4.158c0,2.982-1.347,4.743-4.039,5.285l4.012,7.617
		c0.072,0.123,0.107,0.252,0.107,0.377c0,0.291-0.144,0.557-0.433,0.799c-0.289,0.244-0.597,0.367-0.922,0.367
		c-0.381,0-0.723-0.299-1.029-0.895l-4.092-7.939h-3.117v7.967c0,0.25-0.113,0.451-0.339,0.596s-0.492,0.219-0.799,0.219
		c-0.308,0-0.574-0.074-0.8-0.219C96.751,40.207,96.639,40.006,96.639,39.756z M98.915,29.89h3.496c2.492,0,3.739-1.182,3.739-3.55
		c0-2.349-1.247-3.522-3.739-3.522h-3.496V29.89z"/>
	<path fill="#FFFFFF" d="M110.188,35.529v-2.766c0-1.391,0.528-2.605,1.586-3.646c1.057-1.038,2.309-1.559,3.754-1.559
		c1.444,0,2.7,0.516,3.767,1.546c1.065,1.029,1.599,2.249,1.599,3.658v2.766c0,1.371-0.538,2.592-1.612,3.658
		c-1.076,1.066-2.327,1.598-3.753,1.598c-1.428,0-2.675-0.529-3.74-1.586C110.722,38.143,110.188,36.92,110.188,35.529z
		 M112.438,35.521c0,0.844,0.307,1.588,0.921,2.236c0.614,0.645,1.337,0.969,2.169,0.969c0.849,0,1.58-0.328,2.194-0.982
		c0.614-0.656,0.921-1.398,0.921-2.223v-2.75c0-0.807-0.307-1.535-0.921-2.18c-0.614-0.647-1.346-0.971-2.194-0.971
		c-0.85,0-1.576,0.324-2.182,0.971c-0.605,0.645-0.908,1.374-0.908,2.18V35.521z"/>
	<path fill="#FFFFFF" d="M123.604,39.756V28.509c0-0.234,0.104-0.425,0.312-0.569c0.207-0.146,0.475-0.218,0.8-0.218
		c0.288,0,0.532,0.073,0.73,0.221c0.199,0.146,0.298,0.338,0.298,0.577v1.127c0.327-0.604,0.801-1.104,1.424-1.497
		c0.623-0.394,1.351-0.591,2.181-0.591c0.832,0,1.577,0.253,2.236,0.753c0.659,0.5,1.152,1.164,1.477,1.984
		c0.451-0.894,1.049-1.572,1.788-2.038c0.741-0.464,1.519-0.699,2.333-0.699c1.263,0,2.352,0.472,3.264,1.41
		c0.912,0.94,1.369,2.204,1.369,3.794v6.992c0,0.199-0.113,0.383-0.339,0.555s-0.493,0.26-0.8,0.26
		c-0.287,0-0.546-0.088-0.771-0.258c-0.227-0.17-0.34-0.355-0.34-0.555v-6.975c0-0.973-0.285-1.744-0.853-2.312
		c-0.57-0.567-1.233-0.851-1.991-0.851c-0.761,0-1.433,0.287-2.021,0.864c-0.588,0.577-0.879,1.318-0.879,2.218v7.082
		c0,0.25-0.113,0.445-0.34,0.58c-0.227,0.137-0.492,0.205-0.8,0.205c-0.29,0-0.547-0.068-0.772-0.205
		c-0.226-0.135-0.339-0.33-0.339-0.58V32.73c0-0.902-0.275-1.646-0.826-2.231c-0.551-0.586-1.216-0.879-1.992-0.879
		s-1.454,0.287-2.032,0.864c-0.578,0.577-0.867,1.343-0.867,2.298v6.975c0,0.199-0.112,0.385-0.339,0.555s-0.492,0.258-0.799,0.258
		c-0.308,0-0.57-0.084-0.786-0.246C123.711,40.16,123.604,39.973,123.604,39.756z"/>
	<path fill="#FFFFFF" d="M144.063,37.211c0-1.42,0.542-2.406,1.626-2.965c1.085-0.555,2.655-0.83,4.716-0.83h1.301v-0.574
		c0-0.91-0.248-1.702-0.746-2.375c-0.496-0.672-1.241-1.009-2.235-1.009c-0.758,0-1.427,0.136-2.006,0.407
		c-0.577,0.271-0.894,0.407-0.947,0.407c-0.253,0-0.458-0.122-0.61-0.366c-0.153-0.243-0.231-0.502-0.231-0.773
		c0-0.414,0.412-0.781,1.234-1.097c0.821-0.315,1.693-0.475,2.614-0.475c1.772,0,3.076,0.501,3.916,1.505
		c0.841,1.003,1.262,2.254,1.262,3.754v6.938c0,0.234-0.104,0.43-0.312,0.582c-0.207,0.152-0.474,0.232-0.8,0.232
		c-0.289,0-0.533-0.076-0.731-0.227c-0.199-0.148-0.298-0.338-0.298-0.566v-1.055c-1.229,1.377-2.593,2.062-4.092,2.062
		c-1.085,0-1.965-0.305-2.642-0.914C144.403,39.262,144.063,38.377,144.063,37.211z M146.34,36.965c0,0.678,0.189,1.189,0.569,1.537
		c0.379,0.348,0.886,0.521,1.518,0.521c0.76,0,1.495-0.307,2.208-0.92c0.715-0.613,1.071-1.238,1.071-1.881v-1.426h-0.948
		c-0.524,0-0.977,0.014-1.354,0.039c-0.382,0.029-0.772,0.084-1.18,0.166c-0.406,0.082-0.741,0.201-1.003,0.357
		s-0.474,0.365-0.637,0.633C146.421,36.256,146.34,36.582,146.34,36.965z"/>
	<path fill="#FFFFFF" d="M157.045,39.756V28.509c0-0.234,0.103-0.425,0.312-0.569c0.207-0.146,0.475-0.218,0.799-0.218
		c0.271,0,0.51,0.078,0.719,0.234c0.207,0.156,0.312,0.343,0.312,0.563v1.127c0.288-0.585,0.753-1.081,1.395-1.483
		c0.643-0.403,1.386-0.604,2.235-0.604c1.283,0,2.398,0.511,3.347,1.532c0.95,1.021,1.424,2.247,1.424,3.672v6.992
		c0,0.25-0.113,0.451-0.339,0.596s-0.493,0.219-0.8,0.219c-0.29,0-0.546-0.074-0.771-0.219c-0.227-0.143-0.34-0.342-0.34-0.594
		v-6.975c0-0.811-0.308-1.541-0.921-2.189c-0.614-0.649-1.337-0.974-2.168-0.974c-0.776,0-1.464,0.293-2.061,0.879
		c-0.595,0.584-0.895,1.346-0.895,2.284v6.975c0,0.199-0.115,0.385-0.351,0.555s-0.498,0.258-0.787,0.258
		c-0.307,0-0.568-0.084-0.786-0.246C157.153,40.16,157.045,39.973,157.045,39.756z"/>
	<path fill="#FFFFFF" d="M170.188,35.529v-2.766c0-1.426,0.479-2.651,1.437-3.672c0.957-1.021,2.095-1.532,3.414-1.532
		c0.812,0,1.526,0.202,2.141,0.604s1.084,0.898,1.409,1.483v-8.862c0-0.234,0.109-0.424,0.325-0.568
		c0.218-0.145,0.488-0.217,0.813-0.217s0.592,0.072,0.799,0.217c0.208,0.144,0.312,0.333,0.312,0.567v18.974
		c0,0.215-0.107,0.404-0.324,0.566c-0.218,0.162-0.479,0.246-0.787,0.246c-0.271,0-0.511-0.084-0.719-0.25
		c-0.207-0.164-0.311-0.355-0.311-0.576v-1.098c-0.308,0.586-0.806,1.086-1.49,1.506c-0.688,0.424-1.437,0.633-2.25,0.633
		c-1.266,0-2.376-0.531-3.333-1.598S170.188,36.9,170.188,35.529z M172.437,35.521c0,0.824,0.308,1.566,0.922,2.223
		c0.614,0.654,1.327,0.982,2.141,0.982c0.794,0,1.508-0.303,2.141-0.904c0.633-0.6,0.948-1.125,0.948-1.574v-3.477
		c0-0.934-0.308-1.691-0.921-2.276c-0.615-0.583-1.328-0.875-2.141-0.875c-0.831,0-1.554,0.324-2.168,0.971
		c-0.614,0.645-0.922,1.374-0.922,2.18V35.521z"/>
	<path fill="#FFFFFF" d="M184.185,23.806c-0.28-0.262-0.42-0.562-0.42-0.907c0-0.343,0.136-0.641,0.406-0.893
		c0.271-0.255,0.604-0.381,1.002-0.381c0.38,0,0.706,0.125,0.977,0.381c0.271,0.251,0.407,0.549,0.407,0.893
		c0,0.344-0.137,0.645-0.407,0.907c-0.271,0.263-0.597,0.395-0.977,0.395C184.794,24.201,184.465,24.069,184.185,23.806z
		 M184.062,39.756V28.509c0-0.234,0.108-0.425,0.325-0.569c0.217-0.146,0.479-0.218,0.785-0.218c0.326,0,0.598,0.072,0.814,0.218
		c0.216,0.144,0.325,0.334,0.325,0.569v11.247c0,0.199-0.113,0.383-0.34,0.555c-0.225,0.172-0.492,0.26-0.8,0.26
		c-0.307,0-0.568-0.084-0.785-0.246C184.171,40.16,184.062,39.973,184.062,39.756z"/>
	<path fill="#FFFFFF" d="M189.021,35.529v-2.846c0-1.393,0.529-2.594,1.586-3.605c1.057-1.012,2.326-1.519,3.807-1.519
		c1.41,0,2.631,0.473,3.66,1.415c1.029,0.945,1.543,2.127,1.543,3.547c0,0.529-0.062,0.953-0.189,1.273
		c-0.125,0.32-0.32,0.549-0.582,0.688c-0.262,0.135-0.506,0.223-0.732,0.26c-0.225,0.037-0.527,0.055-0.906,0.055h-5.934v0.812
		c0,0.992,0.355,1.789,1.068,2.385s1.639,0.895,2.777,0.895c0.598,0,1.117-0.09,1.559-0.271c0.443-0.18,0.799-0.357,1.07-0.529
		c0.271-0.168,0.488-0.256,0.65-0.256c0.254,0,0.469,0.111,0.65,0.338c0.18,0.227,0.271,0.459,0.271,0.691
		c0,0.414-0.41,0.84-1.232,1.273c-0.822,0.436-1.84,0.65-3.049,0.65c-1.771,0-3.217-0.484-4.336-1.449
		C189.582,38.369,189.021,37.1,189.021,35.529z M191.273,33.252h5.012c0.471,0,0.787-0.059,0.949-0.178
		c0.162-0.117,0.242-0.346,0.242-0.688c0-0.816-0.297-1.529-0.895-2.144c-0.596-0.614-1.326-0.92-2.193-0.92
		c-0.85,0-1.582,0.283-2.195,0.852c-0.615,0.57-0.92,1.271-0.92,2.103V33.252z"/>
</g>
<linearGradient id="SVGID_1_" gradientUnits="userSpaceOnUse" x1="30.3828" y1="60" x2="30.3828" y2="0">
	<stop  offset="0" style="stop-color:#1D70B7"/>
	<stop  offset="1" style="stop-color:#009EE2"/>
</linearGradient>
<circle fill="url(#SVGID_1_)" cx="30.383" cy="30" r="30"/>
<path fill="#FFFFFF" d="M53.131,36.823v0.707c0,0,0,0.576-0.215,0.961c-0.189,0.345-0.428,0.44-0.79,0.44s-0.599-0.18-0.709-0.542
	c-0.111-0.361-0.167-1.065-0.167-2.112v-1.6c0-1.751-0.321-2.998-0.965-3.743c-0.644-0.744-1.781-1.227-3.411-1.449v-0.09
	c1.73-0.142,3.019-0.578,3.863-1.312c0.846-0.734,1.268-1.957,1.268-3.667s-0.482-2.957-1.448-3.742
	c-0.443-0.383-1.213-0.709-2.31-0.981c-1.097-0.271-2.953-0.406-5.568-0.406h-5.9v0.603h3.14l-4.558,7.305l-4.074-7.305h2.052
	v-0.603h-6.864h-2.173h-2.233v0.572h1.962V33.5c0,2.092-0.443,3.652-1.328,4.678c-0.886,1.027-2.153,1.539-3.803,1.539
	c-1.65,0-2.792-0.492-3.426-1.479c-0.635-0.984-0.95-2.404-0.95-4.255V19.858h1.962v-0.572H6.977v0.572h1.66v13.098
	c0,2.838,0.74,4.84,2.219,6.007c1.479,1.168,3.622,1.752,6.429,1.752s4.763-0.614,5.87-1.843c1.105-1.228,1.659-3.088,1.659-5.582
	V19.919l6.291,11.047l-5.281,8.872h-2.022v0.573h6.248v-0.573h-3.2l4.8-7.969l4.497,7.969h-1.992v0.573h10.322v-0.573h-1.751
	l-6.852-11.801l5.1-8.148h1.436c1.166,0,2.017,0.227,2.55,0.739c0.532,0.514,0.799,1.565,0.799,3.154v0.875
	c0,1.59-0.276,2.735-0.83,3.44c-0.553,0.704-1.403,1.058-2.55,1.058h-0.966v0.573h1.601c0.784,0,1.322,0.261,1.614,0.785
	c0.291,0.522,0.438,1.348,0.438,2.474v2.203c0,2.134,0.348,3.587,1.041,4.36c0.694,0.775,1.866,1.164,3.517,1.164
	c1.649,0,2.646-0.271,3.234-0.817c0.487-0.453,0.934-1.241,0.934-2.136s0-0.938,0-0.938H53.131z"/>
<g>
</g>
<g>
</g>
<g>
</g>
<g>
</g>
<g>
</g>
<g>
</g>
<g>
</g>
<g>
</g>
<g>
</g>
<g>
</g>
<g>
</g>
<g>
</g>
<g>
</g>
<g>
</g>
<g>
</g>
</svg>
